<?xml version="1.0" standalone="no"?>
<!DOCTYPE svg PUBLIC "-//W3C//DTD SVG 20010904//EN"
 "http://www.w3.org/TR/2001/REC-SVG-20010904/DTD/svg10.dtd">
<svg version="1.0" xmlns="http://www.w3.org/2000/svg"
 width="332.000000pt" height="222.000000pt" viewBox="0 0 332.000000 222.000000"
 preserveAspectRatio="xMidYMid meet">

<g transform="translate(0.000000,222.000000) scale(0.100000,-0.100000)"
fill="current" stroke="none">
<path d="M1319 1587 c0 -45 0 -132 1 -193 l1 -111 -43 7 c-24 3 -168 37 -320
75 -153 38 -281 65 -285 61 -10 -9 -11 -692 -1 -701 3 -4 146 28 318 70 171
43 314 74 318 70 4 -4 9 -91 10 -195 l4 -188 111 45 c232 93 1312 535 1321
540 11 7 -24 26 -119 65 -123 52 -1208 496 -1262 517 l-53 21 -1 -83z"/>
</g>
</svg>